<svg width="50" height="55" viewBox="0 0 50 55" fill="none" xmlns="http://www.w3.org/2000/svg">
<path d="M9.59262 27.1438H0.251099C0.251085 22.1239 1.24442 17.1532 3.1744 12.5155C5.10437 7.8777 7.93318 3.66372 11.4993 0.114136L18.1038 6.68791C15.4051 9.37429 13.2645 12.5634 11.8042 16.0733C10.3438 19.5831 9.59234 23.3449 9.59262 27.1438Z" fill="#0054AC"/>
<path d="M9.59262 27.1438H0.251099C0.251085 32.1637 1.24442 37.1344 3.1744 41.7721C5.10437 46.4099 7.93318 50.6239 11.4993 54.1735L18.1038 47.5997C15.4051 44.9133 13.2645 41.7241 11.8042 38.2143C10.3438 34.7045 9.59234 30.9427 9.59262 27.1438Z" fill="#FFC800"/>
<path d="M39.2737 10.1881C38.4435 11.1299 37.9347 12.356 37.9347 13.7065C37.9883 16.6741 38.3453 19.6327 38.381 22.5914C38.4435 25.3546 37.6134 27.949 36.6047 30.4812C36.2655 31.1831 35.8995 31.8672 35.5335 32.5513L34.4624 32.3381C33.4983 32.1426 32.8646 31.2097 33.0609 30.2502C33.2305 29.4061 33.9714 28.8197 34.8016 28.8197L35.1943 28.8641L34.3196 21.6141C34.0339 18.3889 32.3647 15.5546 29.901 13.7154C29.4815 13.3956 29.0262 13.1112 28.5621 12.8536V38.5931H34.5338C34.9801 41.0009 36.3101 43.1066 38.1847 44.5459C38.631 44.848 39.0059 45.2567 39.2737 45.7276C39.5415 45.2567 39.9164 44.8569 40.3627 44.5459C42.2372 43.1066 43.5672 41.0009 44.0136 38.5931H49.9853V12.8536C49.5211 13.1112 49.0659 13.3956 48.6463 13.7154C46.1827 15.5546 44.5134 18.3889 44.2278 21.6141L43.353 28.8641L43.7458 28.8197C44.5759 28.8197 45.3168 29.4061 45.4864 30.2502C45.6828 31.2097 45.049 32.1515 44.085 32.3381L43.0138 32.5513C42.6478 31.8672 42.2818 31.1831 41.9426 30.4812C40.925 27.949 40.0949 25.3546 40.1663 22.5914C40.202 19.6238 40.5591 16.6652 40.6126 13.7065C40.6126 12.356 40.1038 11.1299 39.2737 10.1881ZM30.3473 16.5586C31.4988 17.9091 32.2754 19.5883 32.5075 21.4364L33.2216 27.4159C32.3111 27.869 31.6149 28.7042 31.356 29.7082H30.3473V16.5586ZM48.2 16.5586V29.7082H47.1913C46.9325 28.7042 46.2362 27.869 45.3257 27.4159L46.0398 21.4364C46.2719 19.5883 47.0485 17.9091 48.2 16.5586ZM39.2737 28.5798C39.7557 30.1435 40.4162 31.6273 41.2375 33.0045C40.4609 33.2355 39.7825 33.6975 39.2737 34.3194C38.7738 33.6975 38.0954 33.2444 37.3099 33.0045C38.1311 31.6273 38.7916 30.1435 39.2737 28.5798ZM30.3473 31.4852H31.356C31.6774 32.7113 32.6414 33.6797 33.8554 34.0173L34.7123 34.2128C34.4802 35.0391 34.3553 35.9098 34.3553 36.8161H30.3384V31.4852H30.3473ZM47.1913 31.4852H48.2V36.8161H44.1832C44.1832 35.9187 44.0582 35.0391 43.8261 34.2128L44.683 34.0173C45.9059 33.6797 46.87 32.7113 47.1824 31.4852H47.1913ZM36.4619 34.6215C37.542 34.7726 38.381 35.6966 38.381 36.8161H36.1495C36.1495 36.052 36.2655 35.3234 36.4619 34.6215ZM42.0855 34.6215C42.2818 35.3145 42.3979 36.052 42.3979 36.8161H40.1663C40.1663 35.6966 41.0054 34.7726 42.0855 34.6215ZM36.3548 38.5931H38.381V42.3336C37.3991 41.3029 36.685 40.0235 36.3548 38.5931ZM40.1663 38.5931H42.1926C41.8623 40.0235 41.1482 41.3118 40.1663 42.3336V38.5931Z" fill="#0054AC"/>
</svg>
